<svg id="Layer_1" data-name="Layer 1" xmlns="http://www.w3.org/2000/svg" viewBox="0 0 381.98 129.55"><defs><style>.cls-1{fill:#034ea1;}</style></defs><path class="cls-1" d="M36.09,112l-.84,7.72h0L31.34,113l-3.18.67,2,9.53,1.9-.4L30.42,115l0,0,4.34,7.3,1.9-.4,1-8.43h0l1.67,7.86,1.9-.4-2-9.53Zm69.83,7.72h0l-.84-7.72-3.18-.67-2,9.53,1.9.41,1.66-7.84,0,0,1,8.42,1.9.4,4.33-7.3h0l-1.66,7.86,1.9.4,2-9.52L109.8,113Zm-60.61-9.18-2.72,10.15,2.09-.26.6-2.32,4.08-.51,1.14,2.11,2.23-.27-5.14-9.18Zm.36,6,1-4.17h0l2,3.81Zm35.7,0h0l-3.55-7.44L75.3,109l-.42,9.73,2,.09.3-7.28h0L80.73,119l2.47.11.42-9.73-1.94-.09ZM67.3,109l-3.85,9.77,2.11,0,.86-2.24,4.11,0,.89,2.22,2.25,0L69.59,109ZM67,115l1.43-4h0l1.5,4Zm22.32-5.15-4.9,9.3,2.1.21,1.1-2.14,4.09.41.64,2.31,2.24.22-3-10.08Zm-1,5.91,1.85-3.86h0L91.28,116Zm7.36,4.62,2,.29L99.08,111l-2-.29ZM59.5,109.27l.25,3.93-4,.26-.25-3.92-2,.12.62,9.72,2-.13L55.79,115l4.06-.25.27,4.26,2-.13-.62-9.72ZM94.44,98.46h9.65c-.56-1.24-2.77-3.69-3.07-5L88.46,37.51h-2.1l-16,46.19-16-46.19H52.2L39.63,93.45c-.3,1.32-2.51,3.77-3.08,5h9.66L54.56,58l14.67,42.27h2.19L86.09,58ZM82.11,45.7,80.8,39.34H79.24L70.32,65,61.41,39.34H59.86L58.54,45.7l11.78,34ZM48,96.91h6.56A8.12,8.12,0,0,1,54,93.39L58,72l-3.08-8.88ZM124.73,73.6l.79,0-.08-2.38,2.07-.08.08,2.17.79,0-.08-2.17,1.83-.07.09,2.38.79,0-.12-3.2-6.27.23Zm-.35,6.22,6.25.65.08-.82L124.47,79Zm3,1.74c-1.88-.35-3.38.4-3.7,2.12s.82,2.95,2.7,3.29,3.38-.41,3.69-2.11S129.23,81.9,127.4,81.56Zm1.91,3.15c-.22,1.25-1.5,1.64-2.76,1.41s-2.31-1-2.07-2.3,1.53-1.63,2.76-1.4S129.55,83.47,129.31,84.71Zm-4.42,29.47a35,35,0,0,0-3.13-1.64,64.27,64.27,0,0,0-2.66-80.7v-4.6a1,1,0,0,0-1-1h-4.5a64.23,64.23,0,0,0-86.47,0h-4.5a1,1,0,0,0-1,1v4.6a64.27,64.27,0,0,0-2.66,80.7c-1.13.53-2.18,1.07-3.14,1.64a2.73,2.73,0,0,0-1,3.94,84.1,84.1,0,0,1,3.89,14.1h0a2.53,2.53,0,0,0,.12.53,2.63,2.63,0,0,0,3.08,1.55,20.57,20.57,0,0,1,2.67-.22l.9,3.71,6.08-1.3,2-.43c.3-.1,3-1,2.84-2.46a1.18,1.18,0,0,0-.08-.31c-.15-.59-1-3.8-1.71-6a64,64,0,0,0,32.15,10.83,14.12,14.12,0,0,0,3.67.86,14.08,14.08,0,0,0,3.68-.86,63.93,63.93,0,0,0,32.14-10.83c-.72,2.17-1.56,5.39-1.7,6a1.18,1.18,0,0,0-.08.31c-.12,1.45,2.54,2.36,2.84,2.46l2,.43,6.24,1.34.12-.86s.23-2,.33-2.91a21.2,21.2,0,0,1,2.95.24,2.64,2.64,0,0,0,3.09-1.55,2.53,2.53,0,0,0,.12-.53h0a84.1,84.1,0,0,1,3.89-14.1A2.73,2.73,0,0,0,124.89,114.18Zm-5.79-54.4a50.63,50.63,0,0,1,0,28.18Zm0,36.54V90.88a51.5,51.5,0,0,0,0-34V33.24a63.34,63.34,0,0,1,1.82,78.93,59.79,59.79,0,0,0-6.38-2.34C117.35,105.59,119.1,101.05,119.1,96.32Zm-46.75,5.27h-4L59.43,76a.45.45,0,0,0-.45-.29.44.44,0,0,0-.41.36L55.22,93.73a.9.9,0,0,0,0,.25,11,11,0,0,0,.57,2.55s.32,1,.51,1.68H48a.44.44,0,0,0-.43.35l-.25,1.19H33.9c2.09-2.94,4.36-6.21,4.46-6.6,0,0,12.64-56.28,12.79-57h4.07l1.94,5.6a.45.45,0,0,0,.45.3.45.45,0,0,0,.41-.36s.65-3.12.77-3.71h3.55L69.9,59.8a.44.44,0,0,0,.84,0L78.31,38h3.55c.12.59.77,3.72.77,3.72a.45.45,0,0,0,.41.35.45.45,0,0,0,.45-.3l1.94-5.6H89.5c.15.69,12.79,57,12.79,57,.1.4,2.37,3.67,4.45,6.61H93.38l-.25-1.19a.44.44,0,0,0-.43-.35H84.38c.19-.64.51-1.68.51-1.68A10.46,10.46,0,0,0,85.44,94a1.72,1.72,0,0,0,0-.34L82.08,76.09a.45.45,0,0,0-.86-.07Zm2-3.06v5.83c-1.34,0-2.68,0-4,0s-2.69,0-4,0V98.54c.75,2.19,1.26,3.64,1.26,3.64a.45.45,0,0,0,.42.31h4.69a.45.45,0,0,0,.42-.31S73.6,100.73,74.36,98.53ZM66.3,28.28h8.06v18.4c-1.76,5.06-3.65,10.51-4,11.62-.38-1.11-2.27-6.56-4-11.61ZM52.89,26.2a50.55,50.55,0,0,1,34.86,0Zm43.9,38.41H117v8.06H98.6ZM75.25,96c2.28-6.58,5.64-16.26,6.27-18.06l3,15.9a.57.57,0,0,1,0,.16A9.38,9.38,0,0,1,84,96.27l-.68,2.26a.59.59,0,0,0,0,.13.41.41,0,0,0,.09.26.44.44,0,0,0,.36.18h8.55l.25,1.19a.43.43,0,0,0,.44.35H107.6a.45.45,0,0,0,.4-.24.43.43,0,0,0,0-.46c-1.76-2.48-4.63-6.58-4.82-7L98.8,73.56H117V96.32c0,4.48-1.75,8.82-4.55,12.89-9.95-2.78-23-4.5-37.21-4.83ZM117,28.28V63.72H96.59l-6.3-28.06a.44.44,0,0,0-.43-.35H85.11a.44.44,0,0,0-.42.3L83.18,40c-.25-1.18-.52-2.49-.52-2.49a.46.46,0,0,0-.43-.36H78a.46.46,0,0,0-.42.3l-2.32,6.69V28.28ZM70.32,10.36A63,63,0,0,1,112.24,26.2h-22a51.55,51.55,0,0,0-39.77,0h-22A63,63,0,0,1,70.32,10.36ZM23.64,28.28H65.4V44.13l-2.32-6.7a.46.46,0,0,0-.42-.3H58.43a.46.46,0,0,0-.44.36s-.27,1.3-.51,2.49C56.89,38.3,56,35.61,56,35.61a.44.44,0,0,0-.42-.3H50.79a.44.44,0,0,0-.43.35l-6.3,28.06H23.64Zm0,36.33H43.85l-1.8,8.06H23.64Zm0,9h18.2L37.49,93c-.18.4-3.05,4.5-4.81,7a.44.44,0,0,0,.36.7H47.63a.43.43,0,0,0,.44-.35l.25-1.19h8.55a.46.46,0,0,0,.36-.17.45.45,0,0,0,.08-.27.57.57,0,0,0,0-.13l-.68-2.26A10.41,10.41,0,0,1,56.09,94v-.08s2.53-13.32,3-16c.63,1.8,4,11.49,6.27,18.07v8.41c-14.22.33-27.27,2.05-37.21,4.84-2.8-4.08-4.55-8.42-4.55-12.9Zm-16.82.31A63,63,0,0,1,21.55,33.24V56.87a51.47,51.47,0,0,0,0,34v5.44c0,4.73,1.76,9.27,4.56,13.51a60.6,60.6,0,0,0-6.38,2.34A63.14,63.14,0,0,1,6.82,73.87ZM21.55,59.79V88a50.56,50.56,0,0,1,0-28.16ZM33,134.55l-6.39,1.37c-.15-.63-.28-1.16-.46-1.9,2.92-.07,6.41-.06,8,0A5,5,0,0,1,33,134.55Zm-11.49-1.79a1,1,0,0,1-1.25-.57c0-.07,0-.12,0-.17h0s0,0,0,0a.34.34,0,0,1,.21-.28,57.23,57.23,0,0,1,12.36-4.63c.51,1.38,1.2,3.86,1.61,5.37C31.66,132.32,23.23,132.35,21.47,132.76Zm13.45-6.22c2.19-.52,4.5-1,6.91-1.41A110.94,110.94,0,0,0,63.5,137,63.11,63.11,0,0,1,34.92,126.54Zm39.44-3.91v13.26a15.35,15.35,0,0,1-4,1.05,15.53,15.53,0,0,1-4-1V122.63h-.9v12.94a107,107,0,0,1-20.64-10.93,173.3,173.3,0,0,1,25.56-1.83,173.34,173.34,0,0,1,25.57,1.83,107,107,0,0,1-20.64,10.93V122.63ZM77.15,137a111.23,111.23,0,0,0,21.67-11.87c2.41.42,4.72.89,6.91,1.41A63.11,63.11,0,0,1,77.15,137Zm36.92-1.08-4.59-1-1.79-.38a5.47,5.47,0,0,1-1.1-.5c1.62-.08,4.88-.1,7.7,0Zm6.4-3.9s0,.1,0,.17a1.06,1.06,0,0,1-1.25.57c-1.76-.41-10.19-.44-12.89-.3.41-1.52,1.1-4,1.61-5.37a57.23,57.23,0,0,1,12.36,4.63.33.33,0,0,1,.21.28v0Zm4-14.63a88.13,88.13,0,0,0-3.73,12.82c-10.37-5.54-29.65-9-50.46-9s-40.08,3.45-50.45,9a88.13,88.13,0,0,0-3.73-12.82c-.44-.87-.32-1.4.42-1.85,9.87-5.85,31-9.63,53.76-9.63s43.91,3.78,53.77,9.63C124.83,116,125,116.52,124.51,117.39Zm4.89-42.61c-2-.08-1.67,2.39-3.07,2.33a1.06,1.06,0,0,1-1-1.17,3.16,3.16,0,0,1,.36-1.17l-.83-.12a3.39,3.39,0,0,0-.31,1.16A1.82,1.82,0,0,0,126.35,78c2.06.09,1.89-2.38,3.1-2.32.65,0,.81.57.79,1a2.35,2.35,0,0,1-.31,1.06l.82.15a3.37,3.37,0,0,0,.28-1.21A1.66,1.66,0,0,0,129.4,74.78Zm-4-17.56c-1.85.46-2.91,1.77-2.48,3.46s2,2.34,3.82,1.87,2.9-1.78,2.48-3.46S127.24,56.76,125.44,57.22Zm3.05,2.06c.32,1.22-.68,2.12-1.92,2.43s-2.52,0-2.84-1.23.71-2.12,1.92-2.42S128.19,58.06,128.49,59.28ZM128,92.83l-4.84-1.47v0l5.58-.94.32-1.07-6-1.82-.24.78,5,1.5v0l-5.69,1-.31,1,6,1.83ZM123.08,57a2.56,2.56,0,0,1-.72-1.06A2.26,2.26,0,0,1,123.94,53a2.24,2.24,0,0,1,3,1.22,2.06,2.06,0,0,1,.08,1.23l.84-.24a2.75,2.75,0,0,0-.19-1.3,3.25,3.25,0,0,0-6.1,2.22,3.22,3.22,0,0,0,.65,1.15ZM82.64,72l4,21.39a7.66,7.66,0,0,1-.55,3.52H92.7l-7-33.79Zm41.41-6.65,2.83-.38.37,2.71-2.84.38.11.81,6.22-.83-.11-.82-2.6.35-.36-2.71,2.6-.35-.11-.81-6.22.84ZM16.85,83.85,14,84.3l-.47-3,2.82-.45L16.23,80,10,81l.14.89,2.59-.41.48,3-2.6.41.15.89,6.2-1Zm.26,2-.83.28a3.13,3.13,0,0,1,.66,1.24,2.34,2.34,0,0,1-1.74,2.93,2.33,2.33,0,0,1-3-1.67,2.54,2.54,0,0,1,0-1.34l-.86.16a3.3,3.3,0,0,0,.11,1.43,3.13,3.13,0,0,0,4,2.35,3.1,3.1,0,0,0,2.28-4.06A3.92,3.92,0,0,0,17.11,85.88ZM16.06,78.1l-1.61-.58-.12-3.07,1.56-.7,0-1L9.68,75.66l0,.94L16.09,79Zm-5.52-2,3.07-1.37.09,2.5ZM16,71l-5.15-.43h0l5.38-2.41.1-1.15-6.26-.52-.08.9,5,.42v0L9.76,70.11l-.1,1.22,6.26.52Zm2.32-15.54-.8,2.49-2-.63L16.26,55l-.75-.24L14.79,57,13,56.48l.79-2.5-.75-.24L12,57.09,18,59l1.07-3.35Zm-4.93,9.65a3.1,3.1,0,0,0,3.88-2.58,5.5,5.5,0,0,0,.11-1.93l-3.2-.67-.45,2.18.73.15.26-1.29,1.87.38a3.44,3.44,0,0,1-.1,1,2.33,2.33,0,0,1-2.88,1.82,2.33,2.33,0,0,1-1.92-2.85,2.86,2.86,0,0,1,.77-1.61l-.88-.25a4.62,4.62,0,0,0-.67,1.74A3.12,3.12,0,0,0,13.38,65.06ZM86.64,22.12a5.92,5.92,0,0,0,1.91.29l1-3.13-2.13-.64-.21.7,1.26.39-.55,1.82a3.55,3.55,0,0,1-1-.19,2.34,2.34,0,0,1-1.55-3,2.35,2.35,0,0,1,3-1.65,2.89,2.89,0,0,1,1.52.92l.34-.85a4.94,4.94,0,0,0-1.67-.84A3.13,3.13,0,0,0,84.43,18,3.1,3.1,0,0,0,86.64,22.12ZM76.05,19l-2.61-.19.15-2.06,2.38.16,0-.79-2.38-.16.13-1.84,2.61.19.06-.79-3.51-.25-.44,6.27,3.51.25Zm3.2-4h0l1.89,5.59,1.13.2,1.11-6.18-.88-.16-.9,5h0l-1.84-5.46-1.21-.22-1.1,6.18.88.16Zm-7.78,4.48v-.79l-2.63,0-.09-5.49h-.9l.1,6.28Zm21.81,5.09.3-.73-2.41-1L92,20.89l2.2.94.31-.73-2.2-.94L93,18.47l2.41,1,.31-.73L92.49,17.4,90,23.18Zm-41.5-1.83L50.92,20l2.86-.9.86,2.72.86-.27-1.89-6-.86.28.79,2.5-2.87.91-.79-2.51L49,17l1.9,6Zm-3.48.69a2.35,2.35,0,0,1-3.18-1.25,2.33,2.33,0,0,1,1.17-3.24,2.52,2.52,0,0,1,1.32-.22l-.29-.82a3.39,3.39,0,0,0-1.4.34,3.14,3.14,0,0,0-1.68,4.31,3.1,3.1,0,0,0,4.38,1.6,3.86,3.86,0,0,0,1.2-.8l-.41-.77A3.24,3.24,0,0,1,48.3,23.41Zm9.33-4.06,3-.62.94,1.43,1-.2-3.86-5.62-.92.19-1.37,6.7.92-.2Zm.74-4.08,1.85,2.8-2.45.5ZM67,19.55l-.08-.78L64.28,19l-.55-5.46-.89.09.63,6.25Z" transform="translate(-5.93 -9.47)"/><path class="cls-1" d="M191,40.88h-.09l-6.5,22.88H180l-6.26-22.88h-.09V63.76h-6.21V34.82h10.24l4.68,18.62h.08l5.06-18.62h9.79V63.76H191Z" transform="translate(-5.93 -9.47)"/><path class="cls-1" d="M219.09,57.29H210l-2,6.47h-6.56l9.62-28.94h7.47l9.28,28.94h-7Zm-4.32-16.91h-.08l-3.44,12h6.51Z" transform="translate(-5.93 -9.47)"/><path class="cls-1" d="M245.91,51.74h-7v12h-6.8V34.82h6.8V46.35h7V34.82h6.8V63.76h-6.8Z" transform="translate(-5.93 -9.47)"/><path class="cls-1" d="M274.56,57.29h-9.08l-2,6.47h-6.55l9.62-28.94H274l9.29,28.94h-7Zm-4.31-16.91h-.09l-3.44,12h6.51Z" transform="translate(-5.93 -9.47)"/><path class="cls-1" d="M287.41,34.82h8l8.42,20.07h.08V34.82h6V63.76h-8l-8.34-20.93h-.08V63.76h-6Z" transform="translate(-5.93 -9.47)"/><path class="cls-1" d="M331.56,57.29h-9.08l-2,6.47h-6.55l9.62-28.94H331l9.28,28.94h-7Zm-4.31-16.91h-.08l-3.44,12h6.51Z" transform="translate(-5.93 -9.47)"/><path class="cls-1" d="M344.54,34.82h6.8V63.76h-6.8Z" transform="translate(-5.93 -9.47)"/><path class="cls-1" d="M381.69,40.88h-.08L375.1,63.76h-4.48l-6.26-22.88h-.08V63.76h-6.22V34.82H368.3L373,53.44h.08l5.06-18.62h9.79V63.76h-6.22Z" transform="translate(-5.93 -9.47)"/><path class="cls-1" d="M193.1,83l-1.21-.65a10.58,10.58,0,0,0-1.67-.72,16.55,16.55,0,0,0-2.17-.57,13.33,13.33,0,0,0-2.74-.25,9.32,9.32,0,0,0-4.09.88,8.62,8.62,0,0,0-3.12,2.52,11.79,11.79,0,0,0-2,4,18.43,18.43,0,0,0-.68,5.24,16.15,16.15,0,0,0,.76,5.1,12.53,12.53,0,0,0,2.12,4A9.3,9.3,0,0,0,181.5,105a8.89,8.89,0,0,0,4,.9,14.88,14.88,0,0,0,3-.27,18.79,18.79,0,0,0,2.27-.6,13.45,13.45,0,0,0,1.62-.66l1-.5.33,8a33.22,33.22,0,0,1-3.54.88,30.6,30.6,0,0,1-6.06.5,17.86,17.86,0,0,1-7.22-1.43,16.39,16.39,0,0,1-5.62-4,18.49,18.49,0,0,1-3.67-6.28,24.25,24.25,0,0,1-1.32-8.23,22.93,22.93,0,0,1,1.59-9,17.76,17.76,0,0,1,4.09-6.09,15.73,15.73,0,0,1,5.57-3.45,17.48,17.48,0,0,1,6-1.1,24.21,24.21,0,0,1,6.63.71c1.57.48,2.73.86,3.46,1.15Z" transform="translate(-5.93 -9.47)"/><path class="cls-1" d="M199.35,93.43a29.63,29.63,0,0,1,1-7.84,18.2,18.2,0,0,1,3-6.28,13.83,13.83,0,0,1,5.07-4.17,17.87,17.87,0,0,1,14.38,0,14.18,14.18,0,0,1,5.1,4.17,17.88,17.88,0,0,1,3,6.28,31.58,31.58,0,0,1,0,15.69,18,18,0,0,1-3,6.28,14.39,14.39,0,0,1-5.1,4.17,17.87,17.87,0,0,1-14.38,0,14,14,0,0,1-5.07-4.17,18.38,18.38,0,0,1-3-6.28A29.71,29.71,0,0,1,199.35,93.43Zm9.22,0a37.15,37.15,0,0,0,.35,5.19,16.29,16.29,0,0,0,1.18,4.25,7.38,7.38,0,0,0,2.17,2.85,5.82,5.82,0,0,0,6.64,0,7.48,7.48,0,0,0,2.17-2.85,16.67,16.67,0,0,0,1.2-4.25,34.66,34.66,0,0,0,0-10.37,16.44,16.44,0,0,0-1.2-4.25,7.51,7.51,0,0,0-2.17-2.86,5.82,5.82,0,0,0-6.64,0A7.42,7.42,0,0,0,210.1,84a16.07,16.07,0,0,0-1.18,4.25A37,37,0,0,0,208.57,93.43Z" transform="translate(-5.93 -9.47)"/><path class="cls-1" d="M239.67,74.29h9v31.38h12.67v6.91H239.67Z" transform="translate(-5.93 -9.47)"/><path class="cls-1" d="M267.7,74.29h9v31.38h12.67v6.91H267.7Z" transform="translate(-5.93 -9.47)"/><path class="cls-1" d="M295.73,74.29h22.11V81H304.4v8.56h12.78v6.69H304.4v9.65h14.1v6.7H295.73Z" transform="translate(-5.93 -9.47)"/><path class="cls-1" d="M342.2,90.63h13.49v20.58a23.52,23.52,0,0,1-4.77,1.37,40.27,40.27,0,0,1-7.9.66,23.54,23.54,0,0,1-5.87-.83,15.75,15.75,0,0,1-5.95-3,16.8,16.8,0,0,1-4.61-6.12,23.54,23.54,0,0,1-1.84-10,24.72,24.72,0,0,1,1-7,16.85,16.85,0,0,1,9.55-10.83,22.11,22.11,0,0,1,9.27-1.73,28.17,28.17,0,0,1,5.84.52c1.63.35,3,.69,4.2,1l-.55,7.52c-1-.44-2.16-.9-3.62-1.4a16.25,16.25,0,0,0-5.16-.74,10.08,10.08,0,0,0-9.24,4.91,13.28,13.28,0,0,0-1.67,4.28A19.74,19.74,0,0,0,334,93.6a18.89,18.89,0,0,0,.63,5,12.29,12.29,0,0,0,1.89,4,9,9,0,0,0,3.16,2.72,9.63,9.63,0,0,0,4.47,1,7.06,7.06,0,0,0,3.12-.55V97.11h-5Z" transform="translate(-5.93 -9.47)"/><path class="cls-1" d="M364.08,74.29h22.11V81H372.75v8.56h12.78v6.69H372.75v9.65h14.1v6.7H364.08Z" transform="translate(-5.93 -9.47)"/></svg>